<svg width="46" height="54" viewBox="0 0 46 54" fill="none" xmlns="http://www.w3.org/2000/svg">
<path d="M18.0075 53.4181L16.745 30.6937L8.72834 26.0856L7.84461 29.3681L12.9576 38.2685L8.60209 40.7934L2.35287 30.0624L5.3828 19.2052L19.9012 10.8729L12.9576 3.92932L16.4925 0.394409L28.1072 11.946L19.0175 17.1852L22.0474 19.8364L42.7519 2.91935L45.7818 6.45426L24.3198 28.1687L23.0574 53.4181H18.0075ZM5.3828 15.544C3.99408 15.544 2.80483 15.0491 1.81506 14.0594C0.825283 13.0696 0.331237 11.8812 0.332921 10.4942C0.332921 9.10544 0.827808 7.9162 1.81758 6.92642C2.80736 5.93665 3.99576 5.4426 5.3828 5.44428C6.77151 5.44428 7.96076 5.93917 8.95053 6.92895C9.94031 7.91872 10.4344 9.10713 10.4327 10.4942C10.4327 11.8829 9.93778 13.0721 8.94801 14.0619C7.95823 15.0517 6.76983 15.5457 5.3828 15.544Z" fill="#D99BFF"/>
</svg>
