<svg width="61" height="37" viewBox="0 0 61 37" fill="none" xmlns="http://www.w3.org/2000/svg">
<path d="M16.5312 0.333252C9.86534 0.333252 4.41147 5.78712 4.41147 12.453C4.41147 16.4605 6.38497 20.0278 9.39873 22.2376C4.07212 24.8797 0.371574 30.3578 0.371574 36.6924H4.41147C4.41147 29.978 9.81686 24.5727 16.5312 24.5727C23.2455 24.5727 28.6509 29.978 28.6509 36.6924H32.6908C32.6908 29.978 38.0962 24.5727 44.8105 24.5727C51.5248 24.5727 56.9302 29.978 56.9302 36.6924H60.9701C60.9701 30.3558 57.2695 24.8797 51.9429 22.2376C53.4852 21.1138 54.7406 19.6421 55.6071 17.9419C56.4737 16.2418 56.927 14.3612 56.9302 12.453C56.9302 5.78712 51.4763 0.333252 44.8105 0.333252C38.1446 0.333252 32.6908 5.78712 32.6908 12.453C32.6908 16.4605 34.6643 20.0278 37.678 22.2376C34.7267 23.6886 32.2839 25.9991 30.6708 28.865C29.0578 25.9991 26.6149 23.6886 23.6636 22.2376C25.2059 21.1138 26.4613 19.6421 27.3278 17.9419C28.1944 16.2418 28.6477 14.3612 28.6509 12.453C28.6509 5.78712 23.197 0.333252 16.5312 0.333252ZM16.5312 4.37315C21.0215 4.37315 24.611 7.9626 24.611 12.453C24.611 16.9433 21.0215 20.5328 16.5312 20.5328C12.0408 20.5328 8.45138 16.9433 8.45138 12.453C8.45138 7.9626 12.0408 4.37315 16.5312 4.37315ZM44.8105 4.37315C49.3008 4.37315 52.8903 7.9626 52.8903 12.453C52.8903 16.9433 49.3008 20.5328 44.8105 20.5328C40.3201 20.5328 36.7307 16.9433 36.7307 12.453C36.7307 7.9626 40.3201 4.37315 44.8105 4.37315Z" fill="#D99BFF"/>
</svg>
