<svg width="51" height="52" viewBox="0 0 51 52" fill="none" xmlns="http://www.w3.org/2000/svg">
<path d="M46.2743 27.8547C47.9535 26.1779 49.2342 24.145 50.0217 21.9064C50.8093 19.6679 51.0835 17.2809 50.8241 14.922C50.5647 12.5632 49.7783 10.2928 48.5231 8.27891C47.2679 6.26497 45.5761 4.55897 43.5726 3.2871C38.4975 -0.0710719 31.7054 -0.0963208 26.5798 3.21135C22.1359 6.06453 19.6867 10.5084 19.2575 15.1038C18.9292 18.4367 17.6668 21.5424 15.3438 23.8653L15.2681 23.9411C12.3392 26.87 12.3392 31.3391 15.0913 34.0661L17.591 36.5658C18.9139 37.8878 20.7076 38.6304 22.5778 38.6304C24.448 38.6304 26.2417 37.8878 27.5645 36.5658C30.0137 34.1166 33.2456 32.7784 36.7553 32.3996C40.2145 32.0209 43.5979 30.5059 46.2743 27.8547ZM11.1777 45.8575C11.8594 47.2715 11.6322 48.9885 10.4454 50.1499C9.93148 50.6717 9.27642 51.032 8.56061 51.1868C7.84479 51.3416 7.09936 51.2842 6.41575 51.0214C5.73213 50.7587 5.14006 50.3022 4.71216 49.7078C4.28426 49.1135 4.03914 48.4071 4.00686 47.6755C3.27521 47.6432 2.56889 47.3981 1.97454 46.9702C1.38019 46.5423 0.923648 45.9502 0.660925 45.2666C0.398203 44.583 0.340719 43.8376 0.495526 43.1217C0.650333 42.4059 1.0107 41.7509 1.53242 41.2369C2.69389 40.0754 4.4361 39.8229 5.82481 40.5047L12.0867 34.3691C12.4401 34.8488 12.8441 35.4043 13.2986 35.8588L15.7983 38.3585C16.3286 38.8635 16.8335 39.2927 17.49 39.6714L11.1777 45.8575Z" fill="#D99BFF"/>
</svg>
