<svg width="51" height="52" viewBox="0 0 51 52" fill="none" xmlns="http://www.w3.org/2000/svg">
<path d="M45.8703 26.2435C45.8703 20.8863 43.7422 15.7485 39.954 11.9603C36.1659 8.17217 31.0281 6.04402 25.6708 6.04402C20.3136 6.04402 15.1758 8.17217 11.3876 11.9603C7.59948 15.7485 5.47132 20.8863 5.47132 26.2435C5.47132 31.6008 7.59948 36.7386 11.3876 40.5267C15.1758 44.3149 20.3136 46.443 25.6708 46.443C31.0281 46.443 36.1659 44.3149 39.954 40.5267C43.7422 36.7386 45.8703 31.6008 45.8703 26.2435ZM50.9202 26.2435C50.9202 32.9401 48.26 39.3623 43.5248 44.0975C38.7897 48.8327 32.3674 51.4929 25.6708 51.4929C22.355 51.4929 19.0717 50.8398 16.0083 49.5709C12.9449 48.302 10.1614 46.4421 7.81682 44.0975C3.08164 39.3623 0.421448 32.9401 0.421448 26.2435C0.421448 19.547 3.08164 13.1247 7.81682 8.38951C12.552 3.65434 18.9743 0.994141 25.6708 0.994141C28.9866 0.994141 32.2699 1.64724 35.3333 2.91614C38.3967 4.18503 41.1802 6.04489 43.5248 8.38951C45.8694 10.7341 47.7293 13.5176 48.9982 16.581C50.2671 19.6444 50.9202 22.9277 50.9202 26.2435ZM20.6209 19.9312C20.6209 21.9511 18.8535 23.7186 16.8335 23.7186C14.8136 23.7186 13.0461 21.9511 13.0461 19.9312C13.0461 17.9112 14.8136 16.1438 16.8335 16.1438C18.8535 16.1438 20.6209 17.9112 20.6209 19.9312ZM38.2955 19.9312C38.2955 21.9511 36.5281 23.7186 34.5081 23.7186C32.4882 23.7186 30.7207 21.9511 30.7207 19.9312C30.7207 17.9112 32.4882 16.1438 34.5081 16.1438C36.5281 16.1438 38.2955 17.9112 38.2955 19.9312ZM25.6708 39.4489C21.2522 39.4489 17.3638 37.6057 15.0913 34.8788L18.6767 31.2934C19.813 33.1113 22.5147 34.3991 25.6708 34.3991C28.827 34.3991 31.5287 33.1113 32.6649 31.2934L36.2503 34.8788C33.9779 37.6057 30.0895 39.4489 25.6708 39.4489Z" fill="#D99BFF"/>
</svg>
