<svg width="35" height="35" viewBox="0 0 35 35" fill="none" xmlns="http://www.w3.org/2000/svg">
<path d="M28.9609 6.56934C27.0391 2.7002 22.6328 0 17.5 0C12.3672 0 7.96094 2.7002 6.03906 6.56934C4.75781 6.66504 3.75 7.60156 3.75 8.75V13.125C3.75 14.2734 4.75781 15.21 6.03906 15.3057C7.96094 19.1748 12.3672 21.875 17.5 21.875C22.6328 21.875 27.0391 19.1748 28.9609 15.3057C30.2422 15.21 31.25 14.2734 31.25 13.125V8.75C31.25 7.60156 30.2422 6.66504 28.9609 6.56934ZM26.25 9.84375V10.9375C26.25 14.5605 22.8906 17.5 18.75 17.5H16.25C12.1094 17.5 8.75 14.5605 8.75 10.9375V9.84375C8.75 8.03223 10.4297 6.5625 12.5 6.5625H22.5C24.5703 6.5625 26.25 8.03223 26.25 9.84375ZM14.7891 11.1221L14.3203 9.67285C14.25 9.44727 14.0156 9.29688 13.75 9.29688C13.4844 9.29688 13.25 9.44727 13.1797 9.67285L12.7109 11.1221L11.0547 11.5322C10.7969 11.5937 10.625 11.7988 10.625 12.0312C10.625 12.2637 10.7969 12.4688 11.0547 12.5303L12.7109 12.9404L13.1797 14.3896C13.25 14.6152 13.4844 14.7656 13.75 14.7656C14.0156 14.7656 14.25 14.6152 14.3203 14.3896L14.7891 12.9404L16.4453 12.5303C16.7031 12.4688 16.875 12.2637 16.875 12.0312C16.875 11.7988 16.7031 11.5937 16.4453 11.5322L14.7891 11.1221ZM8.80469 21.6357C3.64844 23.4199 0 27.8223 0 32.9697C0 34.0908 1.03906 35 2.32031 35H10V30.625C10 29.415 11.1172 28.4375 12.5 28.4375H22.5C23.8828 28.4375 25 29.415 25 30.625V35H32.6797C33.9609 35 35 34.0908 35 32.9697C35 27.8223 31.3516 23.4199 26.1953 21.6357C23.7422 23.1602 20.7422 24.0625 17.5 24.0625C14.2578 24.0625 11.2578 23.1602 8.80469 21.6357ZM13.75 30.625C13.0625 30.625 12.5 31.1172 12.5 31.7188V35H15V31.7188C15 31.1172 14.4375 30.625 13.75 30.625ZM21.25 32.8125C21.5815 32.8125 21.8995 32.6973 22.1339 32.4921C22.3683 32.287 22.5 32.0088 22.5 31.7188C22.5 31.4287 22.3683 31.1505 22.1339 30.9454C21.8995 30.7402 21.5815 30.625 21.25 30.625C20.9185 30.625 20.6005 30.7402 20.3661 30.9454C20.1317 31.1505 20 31.4287 20 31.7188C20 32.0088 20.1317 32.287 20.3661 32.4921C20.6005 32.6973 20.9185 32.8125 21.25 32.8125Z" fill="#D99BFF"/>
</svg>
